<svg id="Layer_1" data-name="Layer 1" xmlns="http://www.w3.org/2000/svg" viewBox="0 0 48 48"><defs><style>.cls-1{fill:#41c9d1;}</style></defs><g id="done"><path class="cls-1" d="M36.72,28.41v8.81a5.14,5.14,0,0,1-5.15,5.13H5.14A5.13,5.13,0,0,1,0,37.22V10.79A5.14,5.14,0,0,1,5.14,5.65H31.57a5.15,5.15,0,0,1,5.12,4.6h0l-5.82,5.81V12.58a1.09,1.09,0,0,0-1.08-1.09H6.93a1.09,1.09,0,0,0-1.09,1.09V35.43a1.08,1.08,0,0,0,1.09,1.08H29.79a1.08,1.08,0,0,0,1.08-1.08V34.25Z"/><path class="cls-1" d="M24.93,30.79,17.24,23.1a2.93,2.93,0,0,1,0-4.14h0a2.92,2.92,0,0,1,4.13,0l5.79,5.79L43,8.89a2.92,2.92,0,0,1,4.13,0h0a2.9,2.9,0,0,1,0,4.13L29.38,30.79A3.16,3.16,0,0,1,24.93,30.79Z"/></g></svg>