<svg id="Layer_1" data-name="Layer 1" xmlns="http://www.w3.org/2000/svg" viewBox="0 0 48 48"><defs><style>.cls-1{fill:#41c9d1;}</style></defs><g id="ping"><path class="cls-1" d="M31.17,32a2.46,2.46,0,0,1-3,.52,8.54,8.54,0,0,0-8.28,0,2.46,2.46,0,0,1-3-.52l-.09-.1a2.48,2.48,0,0,1,.59-3.82,13.65,13.65,0,0,1,13.34,0,2.48,2.48,0,0,1,.59,3.82Z"/><path class="cls-1" d="M39.26,25.17a2.51,2.51,0,0,1-3.34.33,20.42,20.42,0,0,0-23.84,0,2.51,2.51,0,0,1-3.34-.33l-.08-.09A2.49,2.49,0,0,1,9,21.39a25.54,25.54,0,0,1,29.92,0,2.49,2.49,0,0,1,.38,3.69Z"/><path class="cls-1" d="M47.27,18.41a2.48,2.48,0,0,1-3.37.3,32.37,32.37,0,0,0-39.8,0,2.48,2.48,0,0,1-3.37-.3l-.09-.09A2.49,2.49,0,0,1,1,14.69a37.46,37.46,0,0,1,46.1,0,2.49,2.49,0,0,1,.31,3.63Z"/><path class="cls-1" d="M26.55,38.69a2.55,2.55,0,1,1-.84-1.9A2.55,2.55,0,0,1,26.55,38.69Z"/></g></svg>