<svg id="Layer_1" data-name="Layer 1" xmlns="http://www.w3.org/2000/svg" viewBox="0 0 48 48"><defs><style>.cls-1{fill:#41c9d1;}</style></defs><path id="setting" class="cls-1" d="M16.77,1.71A3.12,3.12,0,0,1,19.16,2.9,6.11,6.11,0,0,0,24,5.16a6.16,6.16,0,0,0,4.71-2.1C30,1.63,31,1.42,32.81,2.09A23.14,23.14,0,0,1,39.22,5.8a2.85,2.85,0,0,1,1,3.4,6.1,6.1,0,0,0,4.88,8.23A3,3,0,0,1,47.64,20a20.66,20.66,0,0,1-.06,8A3,3,0,0,1,45,30.35a6.09,6.09,0,0,0-5,8.37,2.83,2.83,0,0,1-1,3.47,24.6,24.6,0,0,1-6.14,3.61,3,3,0,0,1-3.59-.89A6.37,6.37,0,0,0,19.18,45a2.89,2.89,0,0,1-3.59,1,24.11,24.11,0,0,1-6.74-3.85,2.83,2.83,0,0,1-.8-3.58,6.07,6.07,0,0,0-3.7-8.21,10,10,0,0,0-1.56-.32A3,3,0,0,1,.3,27.6a21.92,21.92,0,0,1,.11-7.83,3,3,0,0,1,2.71-2.53A6.09,6.09,0,0,0,8.27,8.93a2.92,2.92,0,0,1,1-3.5,23.9,23.9,0,0,1,6.38-3.5,2.31,2.31,0,0,1,.64-.16A1.19,1.19,0,0,1,16.77,1.71ZM32,23.94a8,8,0,1,0-8,7.86A7.92,7.92,0,0,0,32,23.94Z"/></svg>